<svg width="256" height="261" viewBox="0 0 256 261" fill="none" xmlns="http://www.w3.org/2000/svg">
<rect y="5" width="256" height="256" rx="80" fill="#41B782"/>
<path d="M215 118.281C215 138.032 209.75 150.33 199.311 154.825C196.266 156.102 192.989 156.735 189.686 156.684C187.215 156.662 184.752 156.39 182.336 155.873C181.444 155.695 180.655 155.183 180.131 154.441C167.84 137.024 153.844 120.867 138.35 106.21C137.002 104.937 135.202 104.25 133.346 104.301C131.49 104.351 129.73 105.135 128.454 106.48C127.177 107.825 126.489 109.621 126.54 111.472C126.591 113.323 127.377 115.079 128.725 116.352C141.71 128.493 184.839 171.766 197.255 221.324C197.705 223.121 197.421 225.022 196.466 226.609C195.511 228.197 193.963 229.341 192.162 229.791C191.619 229.926 191.061 229.997 190.5 230C188.941 229.998 187.426 229.476 186.198 228.518C184.969 227.56 184.097 226.22 183.719 224.711C180.114 210.336 173.525 196.362 165.816 183.61C165.569 185.777 165.009 187.897 164.154 189.903C159.63 200.325 147.301 205.561 127.5 205.561C107.699 205.561 95.37 200.325 90.855 189.903C86.0863 178.923 90.5138 163.003 103.98 142.588C104.575 141.716 105.17 140.843 105.73 139.97L103.105 141.716C87.985 151.683 75.3062 156.684 65.2787 156.684C61.9761 156.735 58.6987 156.102 55.6537 154.825C45.25 150.33 40 138.032 40 118.281C40 98.5291 45.25 86.2312 55.6888 81.7275C66.705 76.9707 82.665 81.3872 103.131 94.8197L105.756 96.5653L104.006 93.9468C90.5225 73.5319 86.095 57.6119 90.8813 46.6232C95.37 36.2368 107.699 31 127.5 31C147.301 31 159.63 36.2368 164.145 46.6494C168.914 57.6381 164.486 73.5581 151.02 93.973C150.437 94.8633 149.853 95.7361 149.27 96.5914L151.895 94.8458C172.361 81.3959 188.321 76.9795 199.338 81.7537C209.75 86.2312 215 98.5291 215 118.281Z" fill="#EBEBEB"/>
</svg>
